<?xml version="1.0" encoding="iso-8859-1"?>
<!-- Generator: Adobe Illustrator 24.1.0, SVG Export Plug-In . SVG Version: 6.00 Build 0)  -->
<svg version="1.1" xmlns="http://www.w3.org/2000/svg" xmlns:xlink="http://www.w3.org/1999/xlink" x="0px" y="0px"
	 viewBox="0 0 141.885 138.367" style="enable-background:new 0 0 141.885 138.367;" xml:space="preserve">
<g id="&#x30EC;&#x30A4;&#x30E4;&#x30FC;_3">
	<circle style="fill:#FFFFFF;" cx="70.943" cy="69.184" r="68.031"/>
</g>
<g id="&#x30EC;&#x30A4;&#x30E4;&#x30FC;_4">
	<g>
		<path d="M108.939,97.19c3.054,2.274,6.018,4.48,9.051,6.739c-0.695,0.754-1.313,1.447-1.955,2.117
			c-5.798,6.054-11.606,12.098-17.389,18.166c-0.508,0.533-1.016,0.744-1.749,0.744c-17.293-0.019-34.585-0.01-51.878-0.038
			c-0.529-0.001-1.214-0.202-1.563-0.564c-6.292-6.513-12.544-13.064-18.803-19.609c-0.228-0.238-0.434-0.498-0.718-0.826
			c3.016-2.25,5.975-4.457,9.032-6.737c-0.997-2.556-1.991-5.116-2.993-7.672C24.478,75.48,18.985,61.45,13.47,47.428
			c-0.235-0.596-0.19-0.995,0.197-1.513c6.447-8.621,12.862-17.266,19.33-25.872c0.282-0.375,1.003-0.59,1.52-0.592
			c11.453-0.033,22.907-0.025,34.361-0.025c12.839,0,25.677,0.006,38.515-0.015c0.786-0.001,1.276,0.221,1.76,0.874
			c6.316,8.534,12.66,17.048,19.028,25.544c0.45,0.6,0.468,1.056,0.208,1.716c-6.384,16.244-12.747,32.496-19.113,48.746
			C109.169,96.567,109.068,96.846,108.939,97.19z M64.979,63.021c0,1.696,0,3.392,0,5.234c-6.534,0-12.903,0-19.353,0
			c1.452,7.213,2.851,14.268,4.322,21.307c0.157,0.752-0.062,1.07-0.589,1.457c-3.102,2.28-6.188,4.582-9.278,6.879
			c-2.964,2.204-5.925,4.411-8.892,6.62c0.113,0.174,0.16,0.278,0.235,0.356c4.71,4.92,9.409,9.849,14.157,14.732
			c0.35,0.36,1.046,0.538,1.582,0.54c8.754,0.033,17.508,0.023,26.261,0.023c7.112,0,14.223,0.017,21.335-0.031
			c0.589-0.004,1.33-0.29,1.739-0.703c2.868-2.9,5.669-5.866,8.489-8.813c1.909-1.995,3.813-3.995,5.765-6.04
			c-0.413-0.327-0.754-0.611-1.109-0.876c-5.67-4.215-11.343-8.426-17.014-12.64c-0.439-0.326-0.885-0.559-0.724-1.321
			c1.104-5.216,2.152-10.444,3.211-15.67c0.388-1.915,0.757-3.834,1.162-5.89c-6.54,0-12.889,0-19.366,0c0-1.772,0-3.438,0-5.165
			C72.94,63.021,69.097,63.021,64.979,63.021z M35.099,41.556c5.852-3.78,11.495-7.434,17.157-11.057
			c0.343-0.22,0.846-0.265,1.275-0.265c11.604-0.014,23.208-0.019,34.811,0.012c0.589,0.002,1.254,0.212,1.754,0.53
			c4.507,2.87,8.987,5.782,13.47,8.69c1.001,0.649,2.474,1.135,2.836,2.049c0.384,0.969-0.315,2.356-0.511,3.566
			c-0.601,3.708-1.83,7.307-1.706,11.144c0.115,3.552,0.024,7.11,0.024,10.665c0,0.401,0,0.802,0,1.312
			c-0.829,0-1.543-0.073-2.229,0.032c-0.332,0.051-0.826,0.392-0.886,0.677c-1.31,6.241-2.577,12.49-3.817,18.745
			c-0.065,0.329,0.059,0.873,0.296,1.056c2.392,1.836,4.826,3.617,7.318,5.465c0.126-0.277,0.207-0.436,0.272-0.6
			c5.951-15.171,11.895-30.345,17.867-45.508c0.252-0.641,0.054-1.012-0.304-1.491c-5.348-7.158-10.685-14.324-16.004-21.503
			c-0.417-0.563-0.845-0.809-1.57-0.809c-22.796,0.02-45.592,0.02-68.388,0c-0.722-0.001-1.158,0.239-1.574,0.802
			c-5.296,7.149-10.6,14.293-15.944,21.406c-0.499,0.664-0.529,1.147-0.238,1.887c5.843,14.855,11.657,29.722,17.479,44.585
			c0.154,0.394,0.337,0.776,0.535,1.229c2.483-1.842,4.87-3.58,7.203-5.386c0.284-0.22,0.462-0.845,0.387-1.223
			c-1.221-6.183-2.503-12.354-3.731-18.536c-0.134-0.674-0.42-0.867-1.046-0.834c-0.689,0.036-1.382,0.008-2.246,0.008
			C38.025,59.065,37.91,50.156,35.099,41.556z M64.984,57.997c4.05,0,7.95,0,11.973,0c0-1.766,0-3.43,0-5.191
			c7.556,0,14.988,0,22.459,0c0.564-2.789,1.08-5.494,1.674-8.182c0.154-0.698,0.017-1.051-0.591-1.437
			c-4.003-2.543-7.971-5.141-11.97-7.692c-0.382-0.244-0.895-0.397-1.348-0.398c-10.811-0.022-21.623-0.02-32.435-0.006
			c-0.391,0.001-0.846,0.065-1.164,0.268c-4.154,2.653-8.293,5.331-12.419,8.027c-0.221,0.144-0.46,0.541-0.417,0.767
			c0.554,2.88,1.159,5.751,1.769,8.714c7.524,0,14.951,0,22.469,0C64.984,54.616,64.984,56.251,64.984,57.997z"/>
		<path d="M93.317,103.325c0.11,1.651,0.21,3.158,0.305,4.597c-15.121,1.837-30.17,1.834-45.332,0.006
			c0.088-1.412,0.182-2.917,0.288-4.603c5.012,0.322,9.962,0.58,14.901,0.975c4.967,0.397,9.918,0.421,14.887,0.005
			C83.309,103.892,88.266,103.649,93.317,103.325z"/>
		<path d="M69.371,86.794c0,2.216,0,4.287,0,6.433c-1.463,0-2.89,0-4.443,0c0-1.967-0.023-3.893,0.033-5.817
			c0.006-0.212,0.455-0.574,0.713-0.588C66.857,86.758,68.046,86.794,69.371,86.794z"/>
		<path d="M76.975,93.235c-1.515,0-2.915,0-4.412,0c0-2.092,0-4.186,0-6.433c1.302,0,2.592-0.023,3.879,0.026
			c0.185,0.007,0.506,0.364,0.51,0.565C76.99,89.319,76.975,91.245,76.975,93.235z"/>
	</g>
</g>
</svg>
